# xmcd
#
# Track frame offsets:
#	150
#	29325
#	67387
#	105675
#	134185
#	173256
#	203574
#
# Disc length: 3159 seconds
#
# Revision: 1
# Processed by: cddbd v1.5.2PL0 Copyright (c) Steve Scherf et al.
# Submitted via: audiograbber 1.83.01
#
DISCID=630c5507
DTITLE=Grateful Dead - 92-12-11 Oakland Coliseum Arena, Oakland CA
DYEAR=1900
DGENRE=
TTITLE0=Cold Rain and Snow
TTITLE1=Wang Dang Doodle
TTITLE2=Althea
TTITLE3=When I Paint My Masterpiece
TTITLE4=Stagger Lee
TTITLE5=Cassidy
TTITLE6=Deal
EXTD=
EXTT0=
EXTT1=
EXTT2=
EXTT3=
EXTT4=
EXTT5=
EXTT6=
PLAYORDER=
